<mxfile host="app.diagrams.net" modified="2021-04-02T14:26:50.712Z" agent="5.0 (Macintosh; Intel Mac OS X 10_15_3) AppleWebKit/537.36 (KHTML, like Gecko) Chrome/89.0.4389.114 Safari/537.36" etag="wOBPun7DUJOr-e9dkp7g" version="14.3.0" type="github">
  <diagram id="e_Nu4UiDqZK5FSXZQxsC" name="Page-1">
    <mxGraphModel dx="630" dy="425" grid="1" gridSize="10" guides="1" tooltips="1" connect="1" arrows="1" fold="1" page="1" pageScale="1" pageWidth="850" pageHeight="1100" math="0" shadow="0">
      <root>
        <mxCell id="0" />
        <mxCell id="1" parent="0" />
        <mxCell id="EZBb4ChviIudJLhnY7K9-9" value="" style="whiteSpace=wrap;html=1;aspect=fixed;fillColor=#d5e8d4;strokeColor=#82b366;" parent="1" vertex="1">
          <mxGeometry x="422.38" y="443" width="161" height="161" as="geometry" />
        </mxCell>
        <mxCell id="EZBb4ChviIudJLhnY7K9-12" value="" style="whiteSpace=wrap;html=1;aspect=fixed;fillColor=#d5e8d4;strokeColor=#82b366;" parent="1" vertex="1">
          <mxGeometry x="261.38" y="443" width="161" height="161" as="geometry" />
        </mxCell>
        <mxCell id="EZBb4ChviIudJLhnY7K9-13" value="" style="whiteSpace=wrap;html=1;aspect=fixed;fillColor=#d5e8d4;strokeColor=#82b366;" parent="1" vertex="1">
          <mxGeometry x="100.63" y="443" width="161" height="161" as="geometry" />
        </mxCell>
        <mxCell id="EZBb4ChviIudJLhnY7K9-14" value="" style="whiteSpace=wrap;html=1;aspect=fixed;fillColor=#d5e8d4;strokeColor=#82b366;" parent="1" vertex="1">
          <mxGeometry x="422.26" y="282" width="161" height="161" as="geometry" />
        </mxCell>
        <mxCell id="EZBb4ChviIudJLhnY7K9-15" value="" style="whiteSpace=wrap;html=1;aspect=fixed;fillColor=#d5e8d4;strokeColor=#82b366;" parent="1" vertex="1">
          <mxGeometry x="261.26" y="282" width="161" height="161" as="geometry" />
        </mxCell>
        <mxCell id="EZBb4ChviIudJLhnY7K9-16" value="" style="whiteSpace=wrap;html=1;aspect=fixed;fillColor=#d5e8d4;strokeColor=#82b366;" parent="1" vertex="1">
          <mxGeometry x="100.50999999999999" y="282" width="161" height="161" as="geometry" />
        </mxCell>
        <mxCell id="EZBb4ChviIudJLhnY7K9-17" value="" style="whiteSpace=wrap;html=1;aspect=fixed;fillColor=#d5e8d4;strokeColor=#82b366;" parent="1" vertex="1">
          <mxGeometry x="422.13" y="121" width="161" height="161" as="geometry" />
        </mxCell>
        <mxCell id="EZBb4ChviIudJLhnY7K9-18" value="" style="whiteSpace=wrap;html=1;aspect=fixed;fillColor=#d5e8d4;strokeColor=#82b366;" parent="1" vertex="1">
          <mxGeometry x="261.13" y="121" width="161" height="161" as="geometry" />
        </mxCell>
        <mxCell id="EZBb4ChviIudJLhnY7K9-19" value="" style="whiteSpace=wrap;html=1;aspect=fixed;fillColor=#d5e8d4;strokeColor=#82b366;" parent="1" vertex="1">
          <mxGeometry x="100.38" y="121" width="161" height="161" as="geometry" />
        </mxCell>
        <mxCell id="trqewR6XDROr1OXFbvpF-9" value="Neutral&lt;br&gt;Output" style="text;html=1;align=center;verticalAlign=middle;resizable=0;points=[];autosize=1;fontSize=20;" parent="1" vertex="1">
          <mxGeometry x="301.88" y="70" width="80" height="50" as="geometry" />
        </mxCell>
        <mxCell id="trqewR6XDROr1OXFbvpF-11" value="Neutral&lt;br&gt;Input" style="text;html=1;align=center;verticalAlign=middle;resizable=0;points=[];autosize=1;fontSize=20;" parent="1" vertex="1">
          <mxGeometry x="21" y="340" width="80" height="50" as="geometry" />
        </mxCell>
        <mxCell id="trqewR6XDROr1OXFbvpF-63" value="GCC" style="ellipse;whiteSpace=wrap;html=1;aspect=fixed;fontSize=12;labelPosition=left;verticalLabelPosition=middle;align=right;verticalAlign=middle;" parent="1" vertex="1">
          <mxGeometry x="175.88" y="196.5" width="10" height="10" as="geometry" />
        </mxCell>
        <mxCell id="eXJtEBARMdF0W1MzuHGJ-14" value="Micorsoft Word" style="ellipse;whiteSpace=wrap;html=1;aspect=fixed;fontSize=12;labelPosition=left;verticalLabelPosition=middle;align=right;verticalAlign=middle;" parent="1" vertex="1">
          <mxGeometry x="460" y="230" width="10" height="10" as="geometry" />
        </mxCell>
        <mxCell id="CP_VHnQWBo9eyLh-aSXe-1" value="Lawful&lt;br&gt;Input" style="text;html=1;align=center;verticalAlign=middle;resizable=0;points=[];autosize=1;fontSize=20;" parent="1" vertex="1">
          <mxGeometry x="31" y="185" width="70" height="50" as="geometry" />
        </mxCell>
        <mxCell id="CP_VHnQWBo9eyLh-aSXe-2" value="Chaotic&lt;br&gt;Input" style="text;html=1;align=center;verticalAlign=middle;resizable=0;points=[];autosize=1;fontSize=20;" parent="1" vertex="1">
          <mxGeometry x="21" y="498.5" width="80" height="50" as="geometry" />
        </mxCell>
        <mxCell id="MLfeBwrus5_lLmaDxHkl-1" value="Explainable&lt;br&gt;Output" style="text;html=1;align=center;verticalAlign=middle;resizable=0;points=[];autosize=1;fontSize=20;" vertex="1" parent="1">
          <mxGeometry x="121.00999999999999" y="70" width="120" height="50" as="geometry" />
        </mxCell>
        <mxCell id="MLfeBwrus5_lLmaDxHkl-2" value="Unexplainable&lt;br&gt;Output" style="text;html=1;align=center;verticalAlign=middle;resizable=0;points=[];autosize=1;fontSize=20;" vertex="1" parent="1">
          <mxGeometry x="432.88" y="70" width="140" height="50" as="geometry" />
        </mxCell>
        <mxCell id="MLfeBwrus5_lLmaDxHkl-3" value="&lt;font style=&quot;font-size: 45px&quot;&gt;Everything is a Compiler&lt;/font&gt;" style="text;html=1;align=center;verticalAlign=middle;resizable=0;points=[];autosize=1;" vertex="1" parent="1">
          <mxGeometry x="91.63" y="615" width="500" height="30" as="geometry" />
        </mxCell>
        <mxCell id="MLfeBwrus5_lLmaDxHkl-7" value="Prettier" style="ellipse;whiteSpace=wrap;html=1;aspect=fixed;fontSize=12;labelPosition=left;verticalLabelPosition=middle;align=right;verticalAlign=middle;" vertex="1" parent="1">
          <mxGeometry x="336.88" y="196.5" width="10" height="10" as="geometry" />
        </mxCell>
        <mxCell id="MLfeBwrus5_lLmaDxHkl-8" value="JavaDoc" style="ellipse;whiteSpace=wrap;html=1;aspect=fixed;fontSize=12;labelPosition=left;verticalLabelPosition=middle;align=right;verticalAlign=middle;" vertex="1" parent="1">
          <mxGeometry x="336.88" y="357.5" width="10" height="10" as="geometry" />
        </mxCell>
        <mxCell id="MLfeBwrus5_lLmaDxHkl-11" value="Orchestra" style="ellipse;whiteSpace=wrap;html=1;aspect=fixed;fontSize=12;labelPosition=left;verticalLabelPosition=middle;align=right;verticalAlign=middle;" vertex="1" parent="1">
          <mxGeometry x="400" y="260" width="10" height="10" as="geometry" />
        </mxCell>
        <mxCell id="MLfeBwrus5_lLmaDxHkl-12" value="GPT3" style="ellipse;whiteSpace=wrap;html=1;aspect=fixed;fontSize=12;labelPosition=left;verticalLabelPosition=middle;align=right;verticalAlign=middle;" vertex="1" parent="1">
          <mxGeometry x="497.63" y="367.5" width="10" height="10" as="geometry" />
        </mxCell>
        <mxCell id="MLfeBwrus5_lLmaDxHkl-13" value="Speech" style="ellipse;whiteSpace=wrap;html=1;aspect=fixed;fontSize=12;labelPosition=left;verticalLabelPosition=middle;align=right;verticalAlign=middle;" vertex="1" parent="1">
          <mxGeometry x="210" y="460" width="10" height="10" as="geometry" />
        </mxCell>
        <mxCell id="MLfeBwrus5_lLmaDxHkl-17" value="Jazz" style="ellipse;whiteSpace=wrap;html=1;aspect=fixed;fontSize=12;labelPosition=left;verticalLabelPosition=middle;align=right;verticalAlign=middle;" vertex="1" parent="1">
          <mxGeometry x="440" y="470" width="10" height="10" as="geometry" />
        </mxCell>
        <mxCell id="MLfeBwrus5_lLmaDxHkl-19" value="&lt;br&gt;Break Dance" style="ellipse;whiteSpace=wrap;html=1;aspect=fixed;fontSize=12;labelPosition=left;verticalLabelPosition=middle;align=right;verticalAlign=middle;" vertex="1" parent="1">
          <mxGeometry x="497.63" y="508.5" width="10" height="10" as="geometry" />
        </mxCell>
      </root>
    </mxGraphModel>
  </diagram>
</mxfile>
